<svg xmlns="http://www.w3.org/2000/svg" xmlns:xlink="http://www.w3.org/1999/xlink" width="410" height="395" viewBox="0 0 410 395"><defs><style>.cls-1{fill:#7a552d;}.cls-2{fill:#efc572;}.cls-3{fill:url(#linear-gradient);}.cls-4{fill:#020202;}.cls-5{fill:red;stroke:#020202;stroke-miterlimit:10;}.cls-6{fill:#fff;}.cls-7{fill:#f9f6f4;}</style><linearGradient id="linear-gradient" x1="206.9" y1="129.04" x2="207.38" y2="173.69" gradientUnits="userSpaceOnUse"><stop offset="0.43" stop-color="#a67c52"/><stop offset="1" stop-color="#efc572"/></linearGradient></defs><title>abe</title><g id="Layer_3" data-name="Layer 3"><ellipse class="cls-1" cx="267.61" cy="192.72" rx="26" ry="16.44"/><ellipse class="cls-1" cx="284.5" cy="214.05" rx="26" ry="16.44" transform="translate(14.74 446.4) rotate(-77.7)"/><ellipse class="cls-1" cx="237.84" cy="247.83" rx="26" ry="16.44"/><ellipse class="cls-1" cx="254.72" cy="269.16" rx="26" ry="16.44" transform="translate(-62.53 460.68) rotate(-77.7)"/><ellipse class="cls-1" cx="131.66" cy="217.15" rx="16.44" ry="26" transform="translate(-71.76 65.13) rotate(-22)"/><ellipse class="cls-1" cx="145.11" cy="193.5" rx="26" ry="16.44" transform="translate(-30.52 27.21) rotate(-9.7)"/><ellipse class="cls-1" cx="166.77" cy="276.71" rx="16.44" ry="26" transform="translate(-91.51 82.62) rotate(-22)"/><ellipse class="cls-1" cx="180.22" cy="253.06" rx="26" ry="16.44" transform="translate(-40.05 33.97) rotate(-9.7)"/><ellipse class="cls-1" cx="207.84" cy="208.05" rx="57.33" ry="51.78"/><circle class="cls-1" cx="207.17" cy="129.38" r="62"/><circle class="cls-2" cx="182.06" cy="118.94" r="16.89"/><circle class="cls-2" cx="229.61" cy="118.94" r="16.89"/><ellipse class="cls-3" cx="207.17" cy="154.27" rx="36.67" ry="28.22"/><ellipse class="cls-1" cx="142.28" cy="120.05" rx="22.89" ry="30.89"/><ellipse class="cls-1" cx="275.39" cy="125.61" rx="23.11" ry="31.11"/><ellipse class="cls-4" cx="227.53" cy="145.96" rx="2.11" ry="7.5" transform="translate(-36.07 86.07) rotate(-19.88)"/><path class="cls-2" d="M131.84,119.16c0,5.53,3,10,6.66,10s11.12-11.11,6.67-10-3-10-6.67-10S131.84,113.64,131.84,119.16Z"/><path class="cls-2" d="M269.17,122.72c-3.11-1.11,3,10,6.66,10s6.67-4.48,6.67-10-3-10-6.67-10S272.28,123.83,269.17,122.72Z"/><ellipse class="cls-4" cx="188.61" cy="145.83" rx="7.55" ry="2.14" transform="translate(-13.29 272.62) rotate(-69.84)"/><circle cx="183.61" cy="121.38" r="6.44"/><circle cx="227.84" cy="121.16" r="6.67"/><path class="cls-5" d="M184.5,161.61c1.05.52,25,28.34,46.45,0"/><circle class="cls-6" cx="183.84" cy="122.94" r="1.78"/><circle class="cls-7" cx="226.95" cy="122.94" r="1.78"/><path class="cls-1" d="M210.29,252.3c.07,0,0,0-.09-.08l-.21-.15-.48-.31c-.34-.22-.69-.43-1-.64-.72-.43-1.47-.84-2.22-1.24-1.52-.81-3.1-1.53-4.7-2.2a54.08,54.08,0,0,0-9.81-3.08,41.53,41.53,0,0,0-9.85-1,33.06,33.06,0,0,0-9.36,1.46,32.38,32.38,0,0,0-8.44,4.07,33.1,33.1,0,0,0-3.8,2.95c-.6.56-1.19,1.11-1.76,1.71L156.33,256a76.57,76.57,0,0,1-22.17,15.72,56.29,56.29,0,0,1-13.6,4.23,60.41,60.41,0,0,1-14.4.76A67.71,67.71,0,0,1,92,274.27,72.66,72.66,0,0,1,78.7,269c-1.06-.55-2.1-1.13-3.14-1.74L74,266.3c-.58-.38-1.16-.77-1.75-1.2A25.89,25.89,0,0,1,65,257.48a19.89,19.89,0,0,1-2.64-7.08,19.26,19.26,0,0,1,.56-8.58,21.67,21.67,0,0,1,3.36-6.63,26.22,26.22,0,0,1,4-4.29,35.6,35.6,0,0,1,7.81-5.07,48.58,48.58,0,0,1,7.53-2.92,23.41,23.41,0,0,1,7.58-1.15,17.07,17.07,0,0,1,7.65,1.79l.54,21a15.88,15.88,0,0,1-4.3,2.86A20.08,20.08,0,0,1,93,248.78,33.54,33.54,0,0,0,89.27,250a22.4,22.4,0,0,0-2.42,1.13c-.22.11-.28.14-.22,0a7.86,7.86,0,0,0,.5-1.4,6.11,6.11,0,0,0,0-2.66,2.9,2.9,0,0,0-.68-1.44c-.33-.26,0,.51.71,1.3.17.21.39.42.61.64l.9.8c.61.53,1.23,1,1.88,1.55A37.38,37.38,0,0,0,108,257.79a34.71,34.71,0,0,0,18.83-2.67,53.26,53.26,0,0,0,16.82-11.8l2-2c.81-.84,1.68-1.65,2.55-2.45a57.11,57.11,0,0,1,5.6-4.5,50.84,50.84,0,0,1,13-6.56A55,55,0,0,1,181.05,225a68.17,68.17,0,0,1,14,.7A84.87,84.87,0,0,1,208.41,229c2.16.71,4.27,1.52,6.39,2.39,1,.43,2.1.89,3.16,1.39l1.6.77.83.42.44.23.55.3Z"/></g></svg>
