<svg xmlns="http://www.w3.org/2000/svg" xmlns:xlink="http://www.w3.org/1999/xlink" width="213" height="208" viewBox="0 0 213 208"><defs><style>.cls-1{fill:#7a552d;}.cls-2{fill:#efc572;}.cls-3{fill:url(#linear-gradient);}.cls-4{fill:#020202;}.cls-5{fill:red;stroke:#020202;stroke-miterlimit:10;}.cls-6{fill:#fff;}.cls-7{fill:#f9f6f4;}</style><linearGradient id="linear-gradient" x1="104.98" y1="99.99" x2="105.5" y2="148.25" gradientUnits="userSpaceOnUse"><stop offset="0.43" stop-color="#a67c52"/><stop offset="1" stop-color="#efc572"/></linearGradient></defs><title>abehoved</title><g id="Layer_3" data-name="Layer 3"><circle class="cls-1" cx="105.28" cy="100.37" r="67.02"/><circle class="cls-2" cx="78.13" cy="89.08" r="18.26"/><circle class="cls-2" cx="129.54" cy="89.08" r="18.26"/><ellipse class="cls-3" cx="105.28" cy="127.27" rx="39.63" ry="30.51"/><ellipse class="cls-1" cx="35.13" cy="90.28" rx="24.74" ry="33.39"/><ellipse class="cls-1" cx="179.02" cy="96.28" rx="24.98" ry="33.63"/><ellipse class="cls-4" cx="127.28" cy="118.28" rx="2.29" ry="8.1" transform="translate(-32.64 50.33) rotate(-19.88)"/><path class="cls-2" d="M23.85,89.32c0,6,3.22,10.81,7.2,10.81s12-12,7.21-10.81S35,78.51,31.05,78.51,23.85,83.35,23.85,89.32Z"/><path class="cls-2" d="M172.29,93.16C168.93,92,175.52,104,179.5,104s7.21-4.84,7.21-10.81-3.23-10.81-7.21-10.81S175.66,94.36,172.29,93.16Z"/><ellipse class="cls-4" cx="85.22" cy="118.14" rx="8.16" ry="2.32" transform="translate(-55.05 157.42) rotate(-69.84)"/><circle cx="79.81" cy="91.72" r="6.97"/><circle cx="127.61" cy="91.48" r="7.21"/><path class="cls-5" d="M80.77,135.2c1.13.56,27,30.63,50.21,0"/><circle class="cls-6" cx="80.05" cy="93.4" r="1.92"/><circle class="cls-7" cx="126.65" cy="93.4" r="1.92"/></g></svg>
