<svg xmlns="http://www.w3.org/2000/svg" xmlns:xlink="http://www.w3.org/1999/xlink" width="1366" height="768" viewBox="0 0 1366 768"><defs><style>.cls-1{fill:#f98e00;}.cls-2{fill:url(#linear-gradient);}.cls-3{fill:#fcee21;}.cls-4{fill:#8bc9ef;}.cls-5{fill:url(#linear-gradient-2);}.cls-6{fill:#7c5535;}.cls-7{fill:none;}.cls-8{fill:#009245;}.cls-9{fill:#fff7a9;opacity:0.64;}.cls-10{opacity:0.48;}.cls-11{font-size:63px;font-family:RichelaKids, Richela Kids;}.cls-12{letter-spacing:-0.01em;}.cls-13{letter-spacing:0.01em;}.cls-14{letter-spacing:0.01em;}.cls-15{letter-spacing:-0.01em;}.cls-16{letter-spacing:0.01em;}.cls-17{letter-spacing:0em;}.cls-18{letter-spacing:0em;}.cls-19{letter-spacing:0.01em;}.cls-20{fill:#7a552d;}.cls-21{fill:#efc572;}.cls-22{fill:url(#linear-gradient-3);}.cls-23{fill:#020202;}.cls-24{fill:red;stroke:#020202;}.cls-24,.cls-40{stroke-miterlimit:10;}.cls-25{fill:#fff;}.cls-26{fill:#f9f6f4;}.cls-27{fill:#aaa7a5;}.cls-28{fill:#544f4f;}.cls-29{fill:#666161;}.cls-30{fill:#93918f;}.cls-31{fill:#9b9997;}.cls-32{fill:#c57cd1;}.cls-33{fill:#51504f;}.cls-34{fill:#ccc;}.cls-35{fill:#d60000;}.cls-36{fill:#e5d8d8;}.cls-37{fill:#18d35b;}.cls-38{fill:#c9c9c9;}.cls-39,.cls-40{fill:#ff1d25;}.cls-40{stroke:#ccc;stroke-width:8px;}.cls-41{fill:#afafaf;}</style><linearGradient id="linear-gradient" x1="685" y1="384.5" x2="685" y2="-2" gradientUnits="userSpaceOnUse"><stop offset="0" stop-color="#ff6000"/><stop offset="1" stop-color="#f9a43f"/></linearGradient><linearGradient id="linear-gradient-2" x1="683" y1="675.92" x2="683" y2="486.42" gradientUnits="userSpaceOnUse"><stop offset="0" stop-color="#eab386"/><stop offset="1" stop-color="#8c6239"/></linearGradient><linearGradient id="linear-gradient-3" x1="514.53" y1="515.53" x2="514.96" y2="555.76" gradientUnits="userSpaceOnUse"><stop offset="0.43" stop-color="#a67c52"/><stop offset="1" stop-color="#efc572"/></linearGradient></defs><title>Artboard 1</title><g id="Layer_1" data-name="Layer 1"><rect class="cls-1" x="0.5" y="2" width="1365" height="386.5"/><rect class="cls-2" x="2.5" y="-2" width="1365" height="386.5"/><circle class="cls-3" cx="685.5" cy="377.5" r="195.5"/><rect class="cls-4" x="1" y="387" width="1365" height="191"/><rect class="cls-5" x="0.5" y="578" width="1365" height="189.5"/><path class="cls-6" d="M268.3,287.6a715.65,715.65,0,0,0-30.39,357.21q-42.79,1.17-85.85.19C160.22,509.21,203.3,386.69,268.3,287.6Z"/><path class="cls-7" d="M268.3,287.6a715.65,715.65,0,0,0-30.39,357.21q-42.79,1.17-85.85.19C160.22,509.21,203.3,386.69,268.3,287.6Z"/><path class="cls-8" d="M425.24,476.48c.77.51,9.92-73.24-38.88-128.11C364,320.13,334.44,303,310.21,295.25c-24.16-8.16-43-7-42.58-7.65-.13,1,24-11.16,58.67-13.5,34.05-2.63,78.59,4.53,105.33,37.21,27.8,31.78,27.07,76.89,18.15,109.91C441.1,454.89,424.24,476.46,425.24,476.48Z"/><path class="cls-8" d="M425.24,476.48c.77.51,9.92-73.24-38.88-128.11C364,320.13,334.44,303,310.21,295.25c-24.16-8.16-43-7-42.58-7.65-.13,1,24-11.16,58.67-13.5,34.05-2.63,78.59,4.53,105.33,37.21,27.8,31.78,27.07,76.89,18.15,109.91C441.1,454.89,424.24,476.46,425.24,476.48Z"/><path class="cls-8" d="M506.41,346.78c.92,0-35.29-64.93-107.09-80.35-34.76-9.53-68.68-5.88-92.82,2.17-24.31,7.7-38.84,19.79-38.87,19,.46.85,12.78-23.2,39.35-45.57,25.9-22.24,66.06-42.81,107-32.25,41.21,9.21,67.29,46,79.61,77.92C506.44,320,505.59,347.36,506.41,346.78Z"/><path class="cls-8" d="M506.41,346.78c.92,0-35.29-64.93-107.09-80.35-34.76-9.53-68.68-5.88-92.82,2.17-24.31,7.7-38.84,19.79-38.87,19,.46.85,12.78-23.2,39.35-45.57,25.9-22.24,66.06-42.81,107-32.25,41.21,9.21,67.29,46,79.61,77.92C506.44,320,505.59,347.36,506.41,346.78Z"/><path class="cls-8" d="M463,201c.61-.49-57.21-25.07-114.51,1.35-28.79,11.41-50.33,31.16-62.89,48.82-12.87,17.52-16.77,33-17.19,32.44.75.33-2.93-21.91,4.06-50.31,6.6-28,23.88-62.13,57.41-76,33.07-14.93,69.69-3.81,94.33,11.07C449.45,183.2,462.72,201.8,463,201Z"/><path class="cls-8" d="M463,201c.61-.49-57.21-25.07-114.51,1.35-28.79,11.41-50.33,31.16-62.89,48.82-12.87,17.52-16.77,33-17.19,32.44.75.33-2.93-21.91,4.06-50.31,6.6-28,23.88-62.13,57.41-76,33.07-14.93,69.69-3.81,94.33,11.07C449.45,183.2,462.72,201.8,463,201Z"/><path class="cls-8" d="M130.3,494.54c-.7.6-17.94-71.69,24.49-131.62,19.14-30.54,46.59-50.8,69.81-61.2,23.11-10.79,42-11.72,41.47-12.32.24.94-25.1-8.44-59.79-6.93-34.13,1.15-77.62,13.18-100.58,48.62-24.12,34.66-18.4,79.42-5.89,111.24C112.15,474.84,131.3,494.42,130.3,494.54Z"/><path class="cls-8" d="M130.3,494.54c-.7.6-17.94-71.69,24.49-131.62,19.14-30.54,46.59-50.8,69.81-61.2,23.11-10.79,42-11.72,41.47-12.32.24.94-25.1-8.44-59.79-6.93-34.13,1.15-77.62,13.18-100.58,48.62-24.12,34.66-18.4,79.42-5.89,111.24C112.15,474.84,131.3,494.42,130.3,494.54Z"/><path class="cls-8" d="M35.3,374.61c-.92.06,27.9-68.44,97.55-91.69,33.5-13.32,67.61-13.43,92.49-8.1,25,5,40.8,15.37,40.73,14.58-.36.9-15.26-21.64-44.13-40.93-28.21-19.25-70.4-35.25-109.87-20.24-39.94,13.7-61.78,53.18-70.51,86.24C32.31,348,36.18,375.1,35.3,374.61Z"/><path class="cls-8" d="M35.3,374.61c-.92.06,27.9-68.44,97.55-91.69,33.5-13.32,67.61-13.43,92.49-8.1,25,5,40.8,15.37,40.73,14.58-.36.9-15.26-21.64-44.13-40.93-28.21-19.25-70.4-35.25-109.87-20.24-39.94,13.7-61.78,53.18-70.51,86.24C32.31,348,36.18,375.1,35.3,374.61Z"/><path class="cls-8" d="M63.86,225.11c-.67-.42,54.08-31.24,114-11.31,29.87,8.16,53.46,25.4,67.9,41.57,14.72,16,20.31,30.9,20.66,30.34-.71.41.5-22.1-9.59-49.56-9.65-27.08-30.6-59.11-65.46-69.18-34.52-11.18-69.68,3.92-92.53,21.42C75.35,205.93,64.22,225.88,63.86,225.11Z"/><path class="cls-8" d="M63.86,225.11c-.67-.42,54.08-31.24,114-11.31,29.87,8.16,53.46,25.4,67.9,41.57,14.72,16,20.31,30.9,20.66,30.34-.71.41.5-22.1-9.59-49.56-9.65-27.08-30.6-59.11-65.46-69.18-34.52-11.18-69.68,3.92-92.53,21.42C75.35,205.93,64.22,225.88,63.86,225.11Z"/><path class="cls-6" d="M1100.32,274.76c36.81,112.9,45.25,236,21.65,357.85q42.75,2.21,85.83,2.28C1203,499,1162.88,375.41,1100.32,274.76Z"/><path class="cls-7" d="M1100.32,274.76c36.81,112.9,45.25,236,21.65,357.85q42.75,2.21,85.83,2.28C1203,499,1162.88,375.41,1100.32,274.76Z"/><path class="cls-8" d="M938.81,459.74c-.78.5-8.12-73.45,42-127.12,23.08-27.68,53-44.05,77.43-51.23,24.35-7.58,43.18-6,42.75-6.62.11,1-23.74-11.74-58.32-14.92-34-3.46-78.68,2.6-106.21,34.62-28.57,31.1-28.94,76.21-20.83,109.43C923.48,437.78,939.81,459.76,938.81,459.74Z"/><path class="cls-8" d="M938.81,459.74c-.78.5-8.12-73.45,42-127.12,23.08-27.68,53-44.05,77.43-51.23,24.35-7.58,43.18-6,42.75-6.62.11,1-23.74-11.74-58.32-14.92-34-3.46-78.68,2.6-106.21,34.62-28.57,31.1-28.94,76.21-20.83,109.43C923.48,437.78,939.81,459.76,938.81,459.74Z"/><path class="cls-8" d="M860.84,328.1c-.93-.06,36.87-64.05,109-77.71,35-8.68,68.8-4.19,92.73,4.44,24.12,8.29,38.36,20.73,38.4,19.94-.48.84-12.21-23.5-38.22-46.51-25.36-22.87-65-44.41-106.13-34.86-41.43,8.2-68.39,44.37-81.49,76C861.46,301.32,861.64,328.71,860.84,328.1Z"/><path class="cls-8" d="M860.84,328.1c-.93-.06,36.87-64.05,109-77.71,35-8.68,68.8-4.19,92.73,4.44,24.12,8.29,38.36,20.73,38.4,19.94-.48.84-12.21-23.5-38.22-46.51-25.36-22.87-65-44.41-106.13-34.86-41.43,8.2-68.39,44.37-81.49,76C861.46,301.32,861.64,328.71,860.84,328.1Z"/><path class="cls-8" d="M907.81,183.42c-.61-.51,57.8-23.67,114.44,4.14,28.5,12.12,49.55,32.38,61.68,50.35,12.44,17.82,16,33.35,16.39,32.85-.76.31,3.47-21.83-2.83-50.4-5.91-28.14-22.35-62.7-55.54-77.38-32.69-15.73-69.57-5.5-94.57,8.77C921.78,166,908.06,184.23,907.81,183.42Z"/><path class="cls-8" d="M907.81,183.42c-.61-.51,57.8-23.67,114.44,4.14,28.5,12.12,49.55,32.38,61.68,50.35,12.44,17.82,16,33.35,16.39,32.85-.76.31,3.47-21.83-2.83-50.4-5.91-28.14-22.35-62.7-55.54-77.38-32.69-15.73-69.57-5.5-94.57,8.77C921.78,166,908.06,184.23,907.81,183.42Z"/><path class="cls-8" d="M1233.22,485c.69.62,19.69-71.23-21.26-132.18-18.39-31-45.34-51.92-68.3-62.89-22.84-11.35-41.69-12.74-41.16-13.33-.26.94,25.3-7.82,60-5.46,34.09,2,77.27,15.07,99.36,51.06,23.26,35.24,16.46,79.84,3.17,111.35C1251.85,465.76,1232.23,484.86,1233.22,485Z"/><path class="cls-8" d="M1233.22,485c.69.62,19.69-71.23-21.26-132.18-18.39-31-45.34-51.92-68.3-62.89-22.84-11.35-41.69-12.74-41.16-13.33-.26.94,25.3-7.82,60-5.46,34.09,2,77.27,15.07,99.36,51.06,23.26,35.24,16.46,79.84,3.17,111.35C1251.85,465.76,1232.23,484.86,1233.22,485Z"/><path class="cls-8" d="M1331.13,367.43c.92.09-26.23-69.09-95.29-94-33.16-14.13-67.26-15.08-92.26-10.36-25.13,4.35-41.16,14.37-41.08,13.58.34.91,15.79-21.26,45.13-39.84,28.67-18.55,71.23-33.52,110.32-17.55,39.6,14.68,60.47,54.67,68.38,87.94C1334.77,340.9,1330.24,367.9,1331.13,367.43Z"/><path class="cls-8" d="M1331.13,367.43c.92.09-26.23-69.09-95.29-94-33.16-14.13-67.26-15.08-92.26-10.36-25.13,4.35-41.16,14.37-41.08,13.58.34.91,15.79-21.26,45.13-39.84,28.67-18.55,71.23-33.52,110.32-17.55,39.6,14.68,60.47,54.67,68.38,87.94C1334.77,340.9,1330.24,367.9,1331.13,367.43Z"/><path class="cls-8" d="M1306.23,217.28c.67-.4-53.31-32.55-113.65-14.09-30.07,7.43-54.06,24.09-68.9,39.9-15.11,15.62-21,30.39-21.4,29.83.7.43,0-22.11,10.81-49.31,10.31-26.84,32-58.35,67.12-67.57,34.79-10.33,69.57,5.62,92,23.68C1295.21,197.83,1305.85,218.05,1306.23,217.28Z"/><path class="cls-8" d="M1306.23,217.28c.67-.4-53.31-32.55-113.65-14.09-30.07,7.43-54.06,24.09-68.9,39.9-15.11,15.62-21,30.39-21.4,29.83.7.43,0-22.11,10.81-49.31,10.31-26.84,32-58.35,67.12-67.57,34.79-10.33,69.57,5.62,92,23.68C1295.21,197.83,1305.85,218.05,1306.23,217.28Z"/><path class="cls-9" d="M894,460.12v-7.24c0-6.26-5.6-11.33-12.5-11.33h-72c-6.9,0-12.5-5.07-12.5-11.33h0c0-6.25,5.6-11.32,12.5-11.32h32c6.9,0,12.5-5.07,12.5-11.33v-7.24c0-6.26-5.6-11.33-12.5-11.33h-277c-6.9,0-12.5,5.07-12.5,11.33V404c0,6.25-5.6,11.33-12.5,11.33h-54c-6.9,0-12.5,5.07-12.5,11.32v7.25c0,6.25,5.6,11.32,12.5,11.32h118c6.9,0,12.5,5.08,12.5,11.33v2.72c0,6.25-5.6,11.32-12.5,11.32h-25c-6.9,0-12.5,5.07-12.5,11.33v.91c0,6.25-5.6,11.32-12.5,11.32h-30c-6.9,0-12.5,5.07-12.5,11.33v7.24c0,6.26,5.6,11.33,12.5,11.33h332c6.9,0,12.5-5.07,12.5-11.33v-7.24c0-6.26-5.6-11.33-12.5-11.33h-70c-6.9,0-12.5-5.07-12.5-11.32h0c0-6.26,5.6-11.33,12.5-11.33h96C888.4,471.45,894,466.38,894,460.12Z"/></g><g id="Layer_2" data-name="Layer 2"><ellipse class="cls-10" cx="517.5" cy="665" rx="67.5" ry="8"/><ellipse class="cls-10" cx="1243.5" cy="697.5" rx="67.5" ry="19.5"/><text class="cls-11" transform="translate(605.14 85.22)"><tspan class="cls-12">A</tspan><tspan class="cls-13" x="36.98" y="0">b</tspan><tspan class="cls-14" x="68.26" y="0">e</tspan><tspan x="101.94" y="0">n &amp;</tspan><tspan class="cls-15" x="-16.86" y="75.6">H</tspan><tspan class="cls-16" x="24.21" y="75.6">u</tspan><tspan class="cls-17" x="59.34" y="75.6">n</tspan><tspan class="cls-18" x="96.87" y="75.6">d</tspan><tspan class="cls-19" x="131.11" y="75.6">e</tspan><tspan x="164.79" y="75.6">n</tspan></text><ellipse class="cls-10" cx="712.5" cy="681" rx="112.5" ry="8"/><ellipse class="cls-10" cx="705.5" cy="681" rx="48.5" ry="8"/><ellipse class="cls-20" cx="569.22" cy="572.9" rx="23.42" ry="14.81"/><ellipse class="cls-20" cx="584.44" cy="592.12" rx="23.42" ry="14.81" transform="translate(-118.62 1036.95) rotate(-77.7)"/><ellipse class="cls-20" cx="542.4" cy="622.54" rx="23.42" ry="14.81"/><ellipse class="cls-20" cx="557.61" cy="641.76" rx="23.42" ry="14.81" transform="translate(-188.23 1049.81) rotate(-77.7)"/><ellipse class="cls-20" cx="446.76" cy="594.91" rx="14.81" ry="23.42" transform="translate(-190.33 210.68) rotate(-22)"/><ellipse class="cls-20" cx="458.87" cy="573.61" rx="23.42" ry="14.81" transform="translate(-90.05 85.48) rotate(-9.7)"/><ellipse class="cls-20" cx="478.38" cy="648.56" rx="14.81" ry="23.42" transform="matrix(0.93, -0.37, 0.37, 0.93, -208.12, 226.43)"/><ellipse class="cls-20" cx="490.5" cy="627.26" rx="23.42" ry="14.81" transform="translate(-98.64 91.57) rotate(-9.7)"/><ellipse class="cls-20" cx="515.37" cy="586.71" rx="51.65" ry="46.64"/><circle class="cls-20" cx="514.77" cy="515.85" r="55.85"/><circle class="cls-21" cx="492.15" cy="506.44" r="15.21"/><circle class="cls-21" cx="534.99" cy="506.44" r="15.21"/><ellipse class="cls-22" cx="514.77" cy="538.27" rx="33.03" ry="25.42"/><ellipse class="cls-20" cx="456.32" cy="507.44" rx="20.62" ry="27.82"/><ellipse class="cls-20" cx="576.23" cy="512.45" rx="20.82" ry="28.02"/><ellipse class="cls-23" cx="533.11" cy="530.78" rx="1.91" ry="6.75" transform="translate(-148.73 212.93) rotate(-19.88)"/><path class="cls-21" d="M446.91,506.64c0,5,2.69,9,6,9s10-10,6-9-2.68-9-6-9S446.91,501.67,446.91,506.64Z"/><path class="cls-21" d="M570.62,509.84c-2.8-1,2.69,9,6,9s6-4,6-9-2.68-9-6-9S573.43,510.85,570.62,509.84Z"/><ellipse class="cls-23" cx="498.06" cy="530.66" rx="6.8" ry="1.93" transform="translate(-171.75 815.31) rotate(-69.84)"/><circle cx="493.56" cy="508.64" r="5.81"/><circle cx="533.39" cy="508.44" r="6.01"/><path class="cls-24" d="M494.36,544.88c.94.47,22.49,25.53,41.83,0"/><circle class="cls-25" cx="493.76" cy="510.04" r="1.6"/><circle class="cls-26" cx="532.59" cy="510.04" r="1.6"/><path class="cls-20" d="M517,627.46c.08,0,0,0-.06-.06l-.18-.13-.42-.28-.91-.57c-.63-.38-1.29-.75-2-1.11-1.34-.73-2.74-1.37-4.15-2a47.63,47.63,0,0,0-8.66-2.77,36.34,36.34,0,0,0-8.67-.89,27.94,27.94,0,0,0-15.57,4.79,31,31,0,0,0-3.33,2.58c-.52.49-1.05,1-1.55,1.5l-2,2a70,70,0,0,1-20.23,14.35,51.83,51.83,0,0,1-12.47,3.89,56.71,56.71,0,0,1-13.21.73,63.88,63.88,0,0,1-13-2.2,67.25,67.25,0,0,1-12.22-4.79c-1-.5-1.94-1-2.89-1.58l-1.43-.84c-.54-.35-1.08-.71-1.64-1.11a24.34,24.34,0,0,1-6.83-7.18,19.15,19.15,0,0,1-2.53-6.8,18.37,18.37,0,0,1,.53-8.28,20.54,20.54,0,0,1,3.22-6.37,24.46,24.46,0,0,1,3.8-4.08,33.47,33.47,0,0,1,7.3-4.77,44.83,44.83,0,0,1,7-2.71,20.71,20.71,0,0,1,7-1,15,15,0,0,1,7.06,1.85l.54,21a12.92,12.92,0,0,1-3.71,2.81,13.78,13.78,0,0,1-3.56,1.25,28.5,28.5,0,0,0-3.17,1c-.91.33-1.65.72-1.91.82s-.14,0,0-.26a7.69,7.69,0,0,0,.64-1.65,6.67,6.67,0,0,0,0-3,3.76,3.76,0,0,0-.77-1.73c-.43-.43-.27.19.31.86.14.18.32.36.5.55l.77.71c.53.48,1.08,1,1.63,1.39a32.37,32.37,0,0,0,15.24,7.16,30.11,30.11,0,0,0,16.51-2.29A47.08,47.08,0,0,0,457,617.86l1.82-1.84c.75-.77,1.54-1.52,2.34-2.25a51.79,51.79,0,0,1,5.14-4.12,46.29,46.29,0,0,1,11.92-6,50.35,50.35,0,0,1,13-2.53,61.62,61.62,0,0,1,12.85.62,77.12,77.12,0,0,1,12.17,2.93c2,.63,3.9,1.37,5.84,2.15,1,.4,1.93.81,2.9,1.26l1.47.7.76.38.41.22.51.28Z"/><text/><rect x="1301.57" y="606.84" width="12.79" height="75.38" rx="6.4" transform="translate(838.85 -736.09) rotate(45)"/><rect class="cls-27" x="1180.89" y="661.47" width="123.1" height="32.5" rx="16.25"/><ellipse cx="1240.71" cy="637.61" rx="53.42" ry="50.66"/><rect class="cls-28" x="1259.9" y="466.81" width="33.77" height="99.12" rx="16.89" transform="translate(8.83 1054.06) rotate(-45)"/><rect class="cls-28" x="1142.68" y="499.68" width="99.12" height="37.2" rx="18.6" transform="translate(175.77 1328.73) rotate(-62.06)"/><circle class="cls-29" cx="1237.43" cy="571.4" r="66.39"/><rect class="cls-30" x="1205.1" y="640.38" width="28.7" height="68.12" rx="14.35"/><rect class="cls-31" x="1247.97" y="640.73" width="28.7" height="67.77" rx="14.35"/><path class="cls-25" d="M1264.2,643.43l-19.12-34.69a4.45,4.45,0,0,1,4-6.59l39.59.79a4.45,4.45,0,0,1,3.72,6.75l-20.48,33.89A4.45,4.45,0,0,1,1264.2,643.43Z"/><circle class="cls-32" cx="1238.12" cy="616" r="9.34"/><path class="cls-25" d="M1200.57,643.43l-19.11-34.69a4.44,4.44,0,0,1,4-6.59l39.6.79a4.45,4.45,0,0,1,3.72,6.75l-20.49,33.89A4.45,4.45,0,0,1,1200.57,643.43Z"/><path class="cls-33" d="M1272,558.26h-69.22c-21.18,0-38.35,16.41-38.35,36.65s17.17,36.65,38.35,36.65a38.52,38.52,0,0,0,34.61-20.84A38.51,38.51,0,0,0,1272,631.56c21.18,0,38.35-16.41,38.35-36.65S1293.22,558.26,1272,558.26Z"/><circle class="cls-34" cx="1233.8" cy="566.38" r="11.78"/><path d="M1233.8,555.11a11.28,11.28,0,1,1-11.28,11.27,11.28,11.28,0,0,1,11.28-11.27m0-1a12.28,12.28,0,1,0,12.27,12.27,12.27,12.27,0,0,0-12.27-12.27Z"/><circle class="cls-35" cx="1249.7" cy="543.56" r="12.28"/><circle class="cls-36" cx="1221.35" cy="543.21" r="12.28"/><path class="cls-37" d="M1221.18,548.42a5,5,0,1,1,5-5A5,5,0,0,1,1221.18,548.42Z"/><path d="M1221.18,538.85a4.54,4.54,0,1,1-4.54,4.54,4.54,4.54,0,0,1,4.54-4.54m0-1a5.54,5.54,0,1,0,5.53,5.54,5.54,5.54,0,0,0-5.53-5.54Z"/><circle cx="1249.7" cy="543.56" r="4.67"/></g><g id="Layer_3" data-name="Layer 3"><circle cx="705.24" cy="352.24" r="109.26"/><path class="cls-34" d="M705.24,243.49a108.74,108.74,0,1,1-76.9,31.85,108.08,108.08,0,0,1,76.9-31.85m0-1A109.76,109.76,0,1,0,815,352.24,109.75,109.75,0,0,0,705.24,242.49Z"/><circle class="cls-38" cx="691.52" cy="338.52" r="107.02"/><path class="cls-34" d="M691.52,232A106.53,106.53,0,1,1,585,338.52,106.65,106.65,0,0,1,691.52,232m0-1A107.53,107.53,0,1,0,799.05,338.52,107.52,107.52,0,0,0,691.52,231Z"/><path class="cls-39" d="M742.51,361.08,683,391a20.3,20.3,0,0,1-29.4-18.14V313A20.29,20.29,0,0,1,683,294.9l59.55,29.91A20.29,20.29,0,0,1,742.51,361.08Z"/><path class="cls-40" d="M725.1,336.66,686,315.5"/></g><g id="Layer_3_copy" data-name="Layer 3 copy"><path d="M759.06,574.53c0-9.79-8.94-14.88-17.79-20,1.32-5.78,1.4-11.06-4.25-16.06a13.47,13.47,0,0,0-9.23-3.82,19.46,19.46,0,0,0-5.69,1c-3.77-7.57-6.53-14.63-16.57-14.63-11.78,0-13.58,9.73-18.73,18.58a66,66,0,0,0-12.54-1.67c-4.91,0-9.36,1.24-12.8,5.13-4.49,5.06-3.72,11.27-1.63,17.81-4.55,3.53-7.83,7.74-7.83,13.68,0,7.84,6.31,12.16,13.5,16.05-2.47,10.69-8.72,19.82.54,28a13,13,0,0,0,8.93,3.66c5.14,0,10.34-3,16.08-5.19,2.88,6.11,6.24,11,14.48,11,7.89,0,11.28-4.66,14.2-10.48a48.64,48.64,0,0,0,10,1.34c4.51,0,8.61-1.21,11.88-4.9,5.28-6,4.07-13.52,1.7-21.36C751.43,588.21,759.06,583.57,759.06,574.53Z"/><path class="cls-34" d="M749.06,568.53c0-9.79-8.94-14.88-17.79-20,1.32-5.78,1.4-11.06-4.25-16.06a13.47,13.47,0,0,0-9.23-3.82,19.46,19.46,0,0,0-5.69,1c-3.77-7.57-6.53-14.63-16.57-14.63-11.78,0-13.58,9.73-18.73,18.58a66,66,0,0,0-12.54-1.67c-4.91,0-9.36,1.24-12.8,5.13-4.49,5.06-3.72,11.27-1.63,17.81-4.55,3.53-7.83,7.74-7.83,13.68,0,7.84,6.31,12.16,13.5,16.05-2.47,10.69-8.72,19.82.54,28a13,13,0,0,0,8.93,3.66c5.14,0,10.34-3,16.08-5.19,2.88,6.11,6.24,11,14.48,11,7.89,0,11.28-4.66,14.2-10.48a48.64,48.64,0,0,0,10,1.34c4.51,0,8.61-1.21,11.88-4.9,5.28-6,4.07-13.52,1.7-21.36C741.43,582.21,749.06,577.57,749.06,568.53Z"/><path class="cls-41" d="M704.57,588h0a19.29,19.29,0,0,1-27.94-17.24h0a19.29,19.29,0,0,1,27.94-17.24h0A19.29,19.29,0,0,1,704.57,588Z"/><path class="cls-40" d="M712.24,567.6l-19.45-10.53"/></g></svg>