<svg id="Layer_1" data-name="Layer 1" xmlns="http://www.w3.org/2000/svg" xmlns:xlink="http://www.w3.org/1999/xlink" width="1366" height="768" viewBox="0 0 1366 768"><defs><style>.cls-1{fill:#f98e00;}.cls-2{fill:url(#linear-gradient);}.cls-3{fill:#fcee21;}.cls-4{fill:#8bc9ef;}.cls-5{fill:url(#linear-gradient-2);}.cls-6{fill:#7c5535;}.cls-7{fill:none;}.cls-8{fill:#009245;}.cls-9{fill:#fff7a9;opacity:0.64;}</style><linearGradient id="linear-gradient" x1="685" y1="384.5" x2="685" y2="-2" gradientUnits="userSpaceOnUse"><stop offset="0" stop-color="#ff6000"/><stop offset="1" stop-color="#f9a43f"/></linearGradient><linearGradient id="linear-gradient-2" x1="683" y1="675.92" x2="683" y2="486.42" gradientUnits="userSpaceOnUse"><stop offset="0" stop-color="#eab386"/><stop offset="1" stop-color="#8c6239"/></linearGradient></defs><title>baggrund</title><rect class="cls-1" x="0.5" y="2" width="1365" height="386.5"/><rect class="cls-2" x="2.5" y="-2" width="1365" height="386.5"/><circle class="cls-3" cx="685.5" cy="377.5" r="195.5"/><rect class="cls-4" x="1" y="387" width="1365" height="191"/><rect class="cls-5" x="0.5" y="578" width="1365" height="189.5"/><path class="cls-6" d="M268.3,287.6a715.65,715.65,0,0,0-30.39,357.21q-42.79,1.17-85.85.19C160.22,509.21,203.3,386.69,268.3,287.6Z"/><path class="cls-7" d="M268.3,287.6a715.65,715.65,0,0,0-30.39,357.21q-42.79,1.17-85.85.19C160.22,509.21,203.3,386.69,268.3,287.6Z"/><path class="cls-8" d="M425.24,476.48c.77.51,9.92-73.24-38.88-128.11C364,320.13,334.44,303,310.21,295.25c-24.16-8.16-43-7-42.58-7.65-.13,1,24-11.16,58.67-13.5,34.05-2.63,78.59,4.53,105.33,37.21,27.8,31.78,27.07,76.89,18.15,109.91C441.1,454.89,424.24,476.46,425.24,476.48Z"/><path class="cls-8" d="M425.24,476.48c.77.51,9.92-73.24-38.88-128.11C364,320.13,334.44,303,310.21,295.25c-24.16-8.16-43-7-42.58-7.65-.13,1,24-11.16,58.67-13.5,34.05-2.63,78.59,4.53,105.33,37.21,27.8,31.78,27.07,76.89,18.15,109.91C441.1,454.89,424.24,476.46,425.24,476.48Z"/><path class="cls-8" d="M506.41,346.78c.92,0-35.29-64.93-107.09-80.35-34.76-9.53-68.68-5.88-92.82,2.17-24.31,7.7-38.84,19.79-38.87,19,.46.85,12.78-23.2,39.35-45.57,25.9-22.24,66.06-42.81,107-32.25,41.21,9.21,67.29,46,79.61,77.92C506.44,320,505.59,347.36,506.41,346.78Z"/><path class="cls-8" d="M506.41,346.78c.92,0-35.29-64.93-107.09-80.35-34.76-9.53-68.68-5.88-92.82,2.17-24.31,7.7-38.84,19.79-38.87,19,.46.85,12.78-23.2,39.35-45.57,25.9-22.24,66.06-42.81,107-32.25,41.21,9.21,67.29,46,79.61,77.92C506.44,320,505.59,347.36,506.41,346.78Z"/><path class="cls-8" d="M463,201c.61-.49-57.21-25.07-114.51,1.35-28.79,11.41-50.33,31.16-62.89,48.82-12.87,17.52-16.77,33-17.19,32.44.75.33-2.93-21.91,4.06-50.31,6.6-28,23.88-62.13,57.41-76,33.07-14.93,69.69-3.81,94.33,11.07C449.45,183.2,462.72,201.8,463,201Z"/><path class="cls-8" d="M463,201c.61-.49-57.21-25.07-114.51,1.35-28.79,11.41-50.33,31.16-62.89,48.82-12.87,17.52-16.77,33-17.19,32.44.75.33-2.93-21.91,4.06-50.31,6.6-28,23.88-62.13,57.41-76,33.07-14.93,69.69-3.81,94.33,11.07C449.45,183.2,462.72,201.8,463,201Z"/><path class="cls-8" d="M130.3,494.54c-.7.6-17.94-71.69,24.49-131.62,19.14-30.54,46.59-50.8,69.81-61.2,23.11-10.79,42-11.72,41.47-12.32.24.94-25.1-8.44-59.79-6.93-34.13,1.15-77.62,13.18-100.58,48.62-24.12,34.66-18.4,79.42-5.89,111.24C112.15,474.84,131.3,494.42,130.3,494.54Z"/><path class="cls-8" d="M130.3,494.54c-.7.6-17.94-71.69,24.49-131.62,19.14-30.54,46.59-50.8,69.81-61.2,23.11-10.79,42-11.72,41.47-12.32.24.94-25.1-8.44-59.79-6.93-34.13,1.15-77.62,13.18-100.58,48.62-24.12,34.66-18.4,79.42-5.89,111.24C112.15,474.84,131.3,494.42,130.3,494.54Z"/><path class="cls-8" d="M35.3,374.61c-.92.06,27.9-68.44,97.55-91.69,33.5-13.32,67.61-13.43,92.49-8.1,25,5,40.8,15.37,40.73,14.58-.36.9-15.26-21.64-44.13-40.93-28.21-19.25-70.4-35.25-109.87-20.24-39.94,13.7-61.78,53.18-70.51,86.24C32.31,348,36.18,375.1,35.3,374.61Z"/><path class="cls-8" d="M35.3,374.61c-.92.06,27.9-68.44,97.55-91.69,33.5-13.32,67.61-13.43,92.49-8.1,25,5,40.8,15.37,40.73,14.58-.36.9-15.26-21.64-44.13-40.93-28.21-19.25-70.4-35.25-109.87-20.24-39.94,13.7-61.78,53.18-70.51,86.24C32.31,348,36.18,375.1,35.3,374.61Z"/><path class="cls-8" d="M63.86,225.11c-.67-.42,54.08-31.24,114-11.31,29.87,8.16,53.46,25.4,67.9,41.57,14.72,16,20.31,30.9,20.66,30.34-.71.41.5-22.1-9.59-49.56-9.65-27.08-30.6-59.11-65.46-69.18-34.52-11.18-69.68,3.92-92.53,21.42C75.35,205.93,64.22,225.88,63.86,225.11Z"/><path class="cls-8" d="M63.86,225.11c-.67-.42,54.08-31.24,114-11.31,29.87,8.16,53.46,25.4,67.9,41.57,14.72,16,20.31,30.9,20.66,30.34-.71.41.5-22.1-9.59-49.56-9.65-27.08-30.6-59.11-65.46-69.18-34.52-11.18-69.68,3.92-92.53,21.42C75.35,205.93,64.22,225.88,63.86,225.11Z"/><path class="cls-6" d="M1100.32,274.76c36.81,112.9,45.25,236,21.65,357.85q42.75,2.21,85.83,2.28C1203,499,1162.88,375.41,1100.32,274.76Z"/><path class="cls-7" d="M1100.32,274.76c36.81,112.9,45.25,236,21.65,357.85q42.75,2.21,85.83,2.28C1203,499,1162.88,375.41,1100.32,274.76Z"/><path class="cls-8" d="M938.81,459.74c-.78.5-8.12-73.45,42-127.12,23.08-27.68,53-44.05,77.43-51.23,24.35-7.58,43.18-6,42.75-6.62.11,1-23.74-11.74-58.32-14.92-34-3.46-78.68,2.6-106.21,34.62-28.57,31.1-28.94,76.21-20.83,109.43C923.48,437.78,939.81,459.76,938.81,459.74Z"/><path class="cls-8" d="M938.81,459.74c-.78.5-8.12-73.45,42-127.12,23.08-27.68,53-44.05,77.43-51.23,24.35-7.58,43.18-6,42.75-6.62.11,1-23.74-11.74-58.32-14.92-34-3.46-78.68,2.6-106.21,34.62-28.57,31.1-28.94,76.21-20.83,109.43C923.48,437.78,939.81,459.76,938.81,459.74Z"/><path class="cls-8" d="M860.84,328.1c-.93-.06,36.87-64.05,109-77.71,35-8.68,68.8-4.19,92.73,4.44,24.12,8.29,38.36,20.73,38.4,19.94-.48.84-12.21-23.5-38.22-46.51-25.36-22.87-65-44.41-106.13-34.86-41.43,8.2-68.39,44.37-81.49,76C861.46,301.32,861.64,328.71,860.84,328.1Z"/><path class="cls-8" d="M860.84,328.1c-.93-.06,36.87-64.05,109-77.71,35-8.68,68.8-4.19,92.73,4.44,24.12,8.29,38.36,20.73,38.4,19.94-.48.84-12.21-23.5-38.22-46.51-25.36-22.87-65-44.41-106.13-34.86-41.43,8.2-68.39,44.37-81.49,76C861.46,301.32,861.64,328.71,860.84,328.1Z"/><path class="cls-8" d="M907.81,183.42c-.61-.51,57.8-23.67,114.44,4.14,28.5,12.12,49.55,32.38,61.68,50.35,12.44,17.82,16,33.35,16.39,32.85-.76.31,3.47-21.83-2.83-50.4-5.91-28.14-22.35-62.7-55.54-77.38-32.69-15.73-69.57-5.5-94.57,8.77C921.78,166,908.06,184.23,907.81,183.42Z"/><path class="cls-8" d="M907.81,183.42c-.61-.51,57.8-23.67,114.44,4.14,28.5,12.12,49.55,32.38,61.68,50.35,12.44,17.82,16,33.35,16.39,32.85-.76.31,3.47-21.83-2.83-50.4-5.91-28.14-22.35-62.7-55.54-77.38-32.69-15.73-69.57-5.5-94.57,8.77C921.78,166,908.06,184.23,907.81,183.42Z"/><path class="cls-8" d="M1233.22,485c.69.62,19.69-71.23-21.26-132.18-18.39-31-45.34-51.92-68.3-62.89-22.84-11.35-41.69-12.74-41.16-13.33-.26.94,25.3-7.82,60-5.46,34.09,2,77.27,15.07,99.36,51.06,23.26,35.24,16.46,79.84,3.17,111.35C1251.85,465.76,1232.23,484.86,1233.22,485Z"/><path class="cls-8" d="M1233.22,485c.69.62,19.69-71.23-21.26-132.18-18.39-31-45.34-51.92-68.3-62.89-22.84-11.35-41.69-12.74-41.16-13.33-.26.94,25.3-7.82,60-5.46,34.09,2,77.27,15.07,99.36,51.06,23.26,35.24,16.46,79.84,3.17,111.35C1251.85,465.76,1232.23,484.86,1233.22,485Z"/><path class="cls-8" d="M1331.13,367.43c.92.09-26.23-69.09-95.29-94-33.16-14.13-67.26-15.08-92.26-10.36-25.13,4.35-41.16,14.37-41.08,13.58.34.91,15.79-21.26,45.13-39.84,28.67-18.55,71.23-33.52,110.32-17.55,39.6,14.68,60.47,54.67,68.38,87.94C1334.77,340.9,1330.24,367.9,1331.13,367.43Z"/><path class="cls-8" d="M1331.13,367.43c.92.09-26.23-69.09-95.29-94-33.16-14.13-67.26-15.08-92.26-10.36-25.13,4.35-41.16,14.37-41.08,13.58.34.91,15.79-21.26,45.13-39.84,28.67-18.55,71.23-33.52,110.32-17.55,39.6,14.68,60.47,54.67,68.38,87.94C1334.77,340.9,1330.24,367.9,1331.13,367.43Z"/><path class="cls-8" d="M1306.23,217.28c.67-.4-53.31-32.55-113.65-14.09-30.07,7.43-54.06,24.09-68.9,39.9-15.11,15.62-21,30.39-21.4,29.83.7.43,0-22.11,10.81-49.31,10.31-26.84,32-58.35,67.12-67.57,34.79-10.33,69.57,5.62,92,23.68C1295.21,197.83,1305.85,218.05,1306.23,217.28Z"/><path class="cls-8" d="M1306.23,217.28c.67-.4-53.31-32.55-113.65-14.09-30.07,7.43-54.06,24.09-68.9,39.9-15.11,15.62-21,30.39-21.4,29.83.7.43,0-22.11,10.81-49.31,10.31-26.84,32-58.35,67.12-67.57,34.79-10.33,69.57,5.62,92,23.68C1295.21,197.83,1305.85,218.05,1306.23,217.28Z"/><path class="cls-9" d="M894,460.12v-7.24c0-6.26-5.6-11.33-12.5-11.33h-72c-6.9,0-12.5-5.07-12.5-11.33h0c0-6.25,5.6-11.32,12.5-11.32h32c6.9,0,12.5-5.07,12.5-11.33v-7.24c0-6.26-5.6-11.33-12.5-11.33h-277c-6.9,0-12.5,5.07-12.5,11.33V404c0,6.25-5.6,11.33-12.5,11.33h-54c-6.9,0-12.5,5.07-12.5,11.32v7.25c0,6.25,5.6,11.32,12.5,11.32h118c6.9,0,12.5,5.08,12.5,11.33v2.72c0,6.25-5.6,11.32-12.5,11.32h-25c-6.9,0-12.5,5.07-12.5,11.33v.91c0,6.25-5.6,11.32-12.5,11.32h-30c-6.9,0-12.5,5.07-12.5,11.33v7.24c0,6.26,5.6,11.33,12.5,11.33h332c6.9,0,12.5-5.07,12.5-11.33v-7.24c0-6.26-5.6-11.33-12.5-11.33h-70c-6.9,0-12.5-5.07-12.5-11.32h0c0-6.26,5.6-11.33,12.5-11.33h96C888.4,471.45,894,466.38,894,460.12Z"/></svg>
