<svg xmlns="http://www.w3.org/2000/svg" width="480" height="400" viewBox="0 0 480 400"><defs><style>.cls-1{fill:#e2cf20;}.cls-2{fill:#fcee21;}.cls-3{fill:#260507;}</style></defs><title>banan</title><g id="Layer_3" data-name="Layer 3"><path class="cls-1" d="M274.89,373.74a94.08,94.08,0,0,1-37.71-8.24c-22.11-9.65-41.89-27.73-55.7-50.92-16.19-26.7-25.36-61.72-25.15-96.06-.08-34.31,9.2-69.29,25.45-96,13.84-23.1,33.62-41.17,55.71-50.89A95.15,95.15,0,0,1,276,63.19a72.83,72.83,0,0,1,13,1.11c12,2.19,20.18,7.39,20.76,13.23.54,6.52-7.2,12.86-17,20.88-7.51,6.15-16.84,13.79-24.95,23.6-10.05,11.15-18.42,25.36-24.19,41.09a154.54,154.54,0,0,0-9.31,54.19c.12,36.55,12.45,71.24,33.82,95.17,7.79,9.52,16.42,16.83,24,23.28,10.15,8.61,18.17,15.41,17.6,22.55-.47,4.69-6.22,11.21-20.9,14.15A72.12,72.12,0,0,1,274.89,373.74Z"/><path class="cls-1" d="M276,63.5a72.18,72.18,0,0,1,12.94,1.11c6.15,1.12,11.35,3,15,5.53,3.29,2.23,5.24,4.87,5.49,7.41.54,6.35-7.15,12.64-16.88,20.61-7.51,6.15-16.86,13.8-25,23.62C257.54,133,249.14,147.21,243.35,163A154.9,154.9,0,0,0,234,217.29a156.75,156.75,0,0,0,9.63,54.22,130.4,130.4,0,0,0,24.25,41.16c7.82,9.55,16.46,16.87,24.08,23.33,10.08,8.54,18,15.29,17.49,22.25-.27,2.73-2.25,5.55-5.57,7.93-3.7,2.66-8.92,4.71-15.11,5.95a71.54,71.54,0,0,1-13.91,1.29,93.41,93.41,0,0,1-37.62-8.22c-22.05-9.62-41.79-27.66-55.57-50.8-16.16-26.65-25.31-61.6-25.1-95.88-.08-34.25,9.18-69.16,25.41-95.79,13.8-23,33.54-41.08,55.58-50.77A94.81,94.81,0,0,1,276,63.5h0m0-.63a95.43,95.43,0,0,0-38.61,8.5c-19.74,8.69-40.44,25.31-55.83,51-15.45,25.35-25.59,59.78-25.51,96.15-.21,36.37,9.81,70.85,25.2,96.24,15.34,25.74,36,42.39,55.83,51a94,94,0,0,0,37.81,8.26,71.55,71.55,0,0,0,14-1.31c13.21-2.63,20.55-8.63,21.12-14.42,1-12.58-23.09-23.35-41.71-46.08-19.54-21.89-33.6-55.74-33.73-95S248.38,144,268,122.23c18.7-22.64,43-32.91,42-44.74-.54-5.44-7.84-11.1-21-13.5a72.66,72.66,0,0,0-13-1.12Z"/><path class="cls-2" d="M281.88,373.74a62.12,62.12,0,0,1-30-8.24c-17.57-9.65-33.29-27.73-44.27-50.92-12.87-26.7-20.15-61.72-20-96.06-.06-34.31,7.31-69.29,20.23-96,11-23.1,26.72-41.17,44.27-50.89,12.48-7,23.54-8.47,30.61-8.47a46.31,46.31,0,0,1,10.32,1.11c9.57,2.19,16,7.39,16.5,13.23.44,6.52-5.72,12.86-13.51,20.88-6,6.15-13.38,13.79-19.82,23.6-8,11.15-14.64,25.36-19.23,41.09a191,191,0,0,0-7.4,54.19c.1,36.55,9.89,71.24,26.88,95.17,6.19,9.52,13.05,16.83,19.1,23.28,8.07,8.61,14.44,15.41,14,22.55-.37,4.69-4.94,11.21-16.61,14.15A45.93,45.93,0,0,1,281.88,373.74Z"/><path class="cls-2" d="M282.76,63.5a46,46,0,0,1,10.29,1.11A28.11,28.11,0,0,1,305,70.14c2.61,2.23,4.17,4.87,4.37,7.41.42,6.35-5.69,12.64-13.42,20.61-6,6.15-13.41,13.8-19.85,23.62-8,11.18-14.68,25.43-19.28,41.2a191,191,0,0,0-7.41,54.31,193.46,193.46,0,0,0,7.65,54.22c4.62,15.67,11.29,29.91,19.27,41.16,6.22,9.55,13.08,16.87,19.14,23.33,8,8.54,14.34,15.29,13.9,22.25a12.41,12.41,0,0,1-4.43,7.93,28.14,28.14,0,0,1-12,5.95,45.69,45.69,0,0,1-11.06,1.29A61.5,61.5,0,0,1,252,365.2c-17.52-9.62-33.21-27.66-44.16-50.8-12.84-26.65-20.11-61.6-19.95-95.88-.06-34.25,7.3-69.16,20.19-95.79,11-23,26.66-41.08,44.17-50.77,12.45-7,23.47-8.46,30.53-8.46h0m0-.63a63,63,0,0,0-30.68,8.5c-15.69,8.69-32.14,25.31-44.37,51-12.28,25.35-20.34,59.78-20.28,96.15-.17,36.37,7.8,70.85,20,96.24,12.19,25.74,28.64,42.39,44.37,51a62,62,0,0,0,30,8.26A45.57,45.57,0,0,0,293,372.74c10.5-2.63,16.33-8.63,16.79-14.42.8-12.58-18.35-23.35-33.15-46.08-15.53-21.89-26.71-55.74-26.81-95s11-73.3,26.57-95.06c14.85-22.64,34.18-32.91,33.39-44.74-.43-5.44-6.23-11.1-16.68-13.5A46.26,46.26,0,0,0,282.76,62.87Z"/><path class="cls-3" d="M295.39,335.9c10,7.53,13.8,14.08,13.8,22,0,11.92-27.77,20.27-49.58,14.43"/></g></svg>
