<svg xmlns="http://www.w3.org/2000/svg" width="78.86" height="60.85" viewBox="0 0 78.86 60.85"><title>flueben</title><g id="Layer_3_copy" data-name="Layer 3 copy"><path d="M9.5,32.86c1.6,1.32,3.16,2.68,4.72,4s3.08,2.76,4.59,4.17,3,2.79,4.52,4.23l4.46,4.29H25.35l5.22-5.77c1.75-1.91,3.54-3.78,5.31-5.68s3.56-3.76,5.37-5.62,3.59-3.74,5.44-5.55q5.49-5.5,11.16-10.84c3.79-3.56,7.64-7,11.65-10.38-3.15,4.16-6.45,8.18-9.82,12.12s-6.81,7.83-10.3,11.66c-1.73,1.94-3.53,3.8-5.29,5.7S40.55,39,38.73,40.86s-3.6,3.73-5.43,5.57l-5.51,5.48-1.31,1.3-1.13-1.3-4.07-4.65c-1.37-1.55-2.68-3.15-4-4.72s-2.63-3.19-3.94-4.78S10.74,34.52,9.5,32.86Z"/></g></svg>
