<svg id="Layer_1" data-name="Layer 1" xmlns="http://www.w3.org/2000/svg" width="560" height="400" viewBox="0 0 560 400"><defs><style>.cls-1{fill:red;}.cls-2{font-size:67.52px;font-family:RichelaKids, Richela Kids;}.cls-3{letter-spacing:-0.01em;}.cls-4{letter-spacing:0em;}.cls-5{letter-spacing:0em;}.cls-6{letter-spacing:-0.03em;}.cls-7{letter-spacing:0em;}.cls-8{letter-spacing:0.01em;}</style></defs><title>game over knap</title><circle class="cls-1" cx="282" cy="198" r="197"/><path d="M282,1.5a196.55,196.55,0,0,1,76.49,377.56,196.55,196.55,0,0,1-153-362.12A195.41,195.41,0,0,1,282,1.5m0-1C172.92.5,84.5,88.92,84.5,198S172.92,395.5,282,395.5,479.5,307.08,479.5,198,391.08.5,282,.5Z"/><text class="cls-2" transform="translate(104.65 216.79)"><tspan class="cls-3">G</tspan><tspan class="cls-4" x="45.27" y="0">A</tspan><tspan class="cls-5" x="85.62" y="0">M</tspan><tspan x="141.67" y="0">E </tspan><tspan class="cls-6" x="186.84" y="0">O</tspan><tspan class="cls-7" x="228.38" y="0">V</tspan><tspan class="cls-8" x="267.68" y="0">E</tspan><tspan x="300.42" y="0">R </tspan></text><path d="M393.41,283.75c-26.49,4.1-53.09,6.77-79.76,8.7q-20,1.43-40.1,2.06c-13.41.38-26.8.54-40.47-.21-3.43-.21-6.87-.5-10.47-1a46.07,46.07,0,0,1-5.73-1.15c-.25-.06-.55-.16-.82-.25s-.55-.17-.88-.3-.6-.22-1-.39-.71-.34-1.11-.56l-.69-.43a7.32,7.32,0,0,1-.73-.54q-.44-.37-.84-.78l-.21-.22-.26-.33q-.25-.33-.48-.69c-.15-.24-.29-.48-.42-.73a7.56,7.56,0,0,1-.39-1,10.65,10.65,0,0,1-.27-1.08c0-.14-.07-.44-.06-.46v-.21a14.25,14.25,0,0,1,0-1.73A11.28,11.28,0,0,1,210.9,277a12.92,12.92,0,0,1,1.43-1.67,16.52,16.52,0,0,1,1.43-1.3,29.27,29.27,0,0,1,5.37-3.38,69.57,69.57,0,0,1,10.16-4c6.69-2.12,13.3-3.71,19.9-5.11l2.47-.52,1.22-.26.52-.1.66-.1a13.18,13.18,0,0,1,1.41-.08,10.1,10.1,0,0,1,5.31,1.69,12.13,12.13,0,0,1,3.14,3.08,21.15,21.15,0,0,1,2.88,6,36.62,36.62,0,0,1,1.27,5.66,50.94,50.94,0,0,1,.4,11,44.2,44.2,0,0,1-2,10.92,26,26,0,0,1-2.51,5.45,13.46,13.46,0,0,1-5,4.86,9.92,9.92,0,0,1-3.76,1.15,10.26,10.26,0,0,1-1.92,0c-.29,0-.66-.07-.87-.11l-.66-.14c-.88-.17-1.75-.35-2.6-.57s-1.72-.43-2.56-.69a57.17,57.17,0,0,1-18.6-9.32,49.34,49.34,0,0,1-7.46-7.12,42.28,42.28,0,0,1-5.39-8.6A45.28,45.28,0,0,0,230,296.45a53.35,53.35,0,0,0,8.83,3.81,59.87,59.87,0,0,0,9.25,2.31c.78.13,1.56.25,2.34.34s1.56.18,2.33.24l.58.05a2.23,2.23,0,0,0,.37,0,2.52,2.52,0,0,0,.58-.09,2.72,2.72,0,0,0,.93-.47,6.74,6.74,0,0,0,1.78-2.38,17.74,17.74,0,0,0,1.27-3.79,43.31,43.31,0,0,0-.22-17.74,27,27,0,0,0-1.19-4,10.88,10.88,0,0,0-1.6-2.89c-.25-.29-.46-.42-.44-.37a.9.9,0,0,0,.59.21.51.51,0,0,0,.17,0h.08l-.13,0-1.2.33-2.4.64c-6.36,1.75-12.68,3.48-18.63,5.64a69.06,69.06,0,0,0-8.33,3.55,17,17,0,0,0-3,2,3.36,3.36,0,0,0-.42.4c-.14.13-.14.19-.19.23s.2-.2.26-.84a1.11,1.11,0,0,0,0-.48v-.06s0-.21,0-.3a5.49,5.49,0,0,0-.18-.78,8.46,8.46,0,0,0-.54-1.19c-.1-.15-.2-.29-.31-.43l-.27-.31a2.6,2.6,0,0,0-.38-.36,1.64,1.64,0,0,1-.22-.18l-.16-.09s0,0,0,0a1.94,1.94,0,0,0,.21.08c.05,0,.19.06.3.1l.37.11a35.26,35.26,0,0,0,4.08.76c3,.41,6.23.65,9.45.84,6.47.42,13.06.57,19.66.68s13.23.16,19.87.2l39.9.06C339.94,282.35,366.63,282.47,393.41,283.75Z"/></svg>