<svg xmlns="http://www.w3.org/2000/svg" width="251" height="221" viewBox="0 0 251 221"><defs><style>.cls-1{fill:#544f4f;}.cls-2{fill:#666161;}.cls-3{fill:#fff;}.cls-4{fill:#c57cd1;}.cls-5{fill:#51504f;}.cls-6{fill:#ccc;}.cls-7{fill:#d60000;}.cls-8{fill:#e5d8d8;}.cls-9{fill:#18d35b;}</style></defs><title>hundehoved</title><g id="Layer_3" data-name="Layer 3"><rect class="cls-1" x="154.23" y="16.37" width="37.93" height="111.32" rx="14.9" transform="translate(-0.21 143.57) rotate(-45)"/><rect class="cls-1" x="22.59" y="53.28" width="111.32" height="41.78" rx="16.41" transform="translate(-23.94 108.54) rotate(-62.06)"/><circle class="cls-2" cx="129" cy="133.83" r="74.56"/><path class="cls-3" d="M159.52,215.56l-22.38-40.62a4.44,4.44,0,0,1,4-6.59l46.37.92A4.44,4.44,0,0,1,191.2,176l-24,39.69A4.45,4.45,0,0,1,159.52,215.56Z"/><circle class="cls-4" cx="129.77" cy="183.92" r="10.49"/><path class="cls-3" d="M88.06,215.56,65.68,174.94a4.45,4.45,0,0,1,4-6.59l46.36.92a4.45,4.45,0,0,1,3.72,6.75l-24,39.69A4.45,4.45,0,0,1,88.06,215.56Z"/><path class="cls-5" d="M167.87,119.07H90.13c-23.79,0-43.07,18.43-43.07,41.17S66.34,201.4,90.13,201.4c17.13,0,31.93-9.57,38.87-23.41,6.93,13.84,21.73,23.41,38.87,23.41,23.78,0,43.07-18.43,43.07-41.16S191.65,119.07,167.87,119.07Z"/><path class="cls-6" d="M124.92,141.48a13.29,13.29,0,1,1,13.29-13.28A13.3,13.3,0,0,1,124.92,141.48Z"/><path d="M124.92,115.41a12.79,12.79,0,1,1-12.79,12.79,12.81,12.81,0,0,1,12.79-12.79m0-1a13.79,13.79,0,1,0,13.79,13.79,13.79,13.79,0,0,0-13.79-13.79Z"/><circle class="cls-7" cx="142.78" cy="102.57" r="13.79"/><circle class="cls-8" cx="110.94" cy="102.18" r="13.79"/><path class="cls-9" d="M110.75,108.09a5.72,5.72,0,1,1,5.71-5.72A5.73,5.73,0,0,1,110.75,108.09Z"/><path d="M110.74,97.16a5.22,5.22,0,1,1-5.21,5.21,5.22,5.22,0,0,1,5.21-5.21m0-1a6.22,6.22,0,1,0,6.22,6.21,6.21,6.21,0,0,0-6.22-6.21Z"/><circle cx="142.78" cy="102.57" r="5.24"/></g></svg>
