<svg xmlns="http://www.w3.org/2000/svg" width="410" height="400" viewBox="0 0 410 400"><defs><style>.cls-1{opacity:0.48;}.cls-2{fill:#aaa7a5;}.cls-3{fill:#544f4f;}.cls-4{fill:#666161;}.cls-5{fill:#93918f;}.cls-6{fill:#9b9997;}.cls-7{fill:#fff;}.cls-8{fill:#c57cd1;}.cls-9{fill:#51504f;}.cls-10{fill:#ccc;}.cls-11{fill:#d60000;}.cls-12{fill:#e5d8d8;}.cls-13{fill:#18d35b;}</style></defs><title>hund</title><g id="Layer_3" data-name="Layer 3"><ellipse class="cls-1" cx="211.11" cy="325.05" rx="79.45" ry="22.95"/><rect x="279.46" y="218.33" width="15.06" height="88.73" rx="5.64" transform="translate(269.81 -125.99) rotate(45)"/><rect class="cls-2" x="137.42" y="282.64" width="144.89" height="38.26" rx="14.34"/><ellipse cx="207.83" cy="254.56" rx="62.88" ry="59.63"/><rect class="cls-3" x="230.41" y="53.52" width="39.75" height="116.67" rx="14.9" transform="translate(-5.78 209.74) rotate(-45)"/><rect class="cls-3" x="92.44" y="92.2" width="116.67" height="43.78" rx="16.41" transform="translate(-20.66 193.83) rotate(-62.06)"/><circle class="cls-4" cx="203.96" cy="176.62" r="78.15"/><rect class="cls-5" x="165.91" y="257.81" width="33.78" height="80.18" rx="12.66"/><rect class="cls-6" x="216.38" y="258.22" width="33.78" height="79.77" rx="12.66"/><path class="cls-7" d="M236.13,262.6l-23.81-43.22a4.44,4.44,0,0,1,4-6.59l49.33,1a4.45,4.45,0,0,1,3.72,6.75l-25.52,42.23A4.45,4.45,0,0,1,236.13,262.6Z"/><circle class="cls-8" cx="204.78" cy="229.12" r="10.99"/><path class="cls-7" d="M161.24,262.6l-23.81-43.22a4.44,4.44,0,0,1,4-6.59l49.34,1a4.45,4.45,0,0,1,3.71,6.75l-25.52,42.23A4.45,4.45,0,0,1,161.24,262.6Z"/><path class="cls-9" d="M244.7,161.15H163.23c-24.94,0-45.15,19.32-45.15,43.14s20.21,43.15,45.15,43.15c18,0,33.46-10,40.73-24.54,7.27,14.51,22.78,24.54,40.74,24.54,24.93,0,45.14-19.32,45.14-43.15S269.63,161.15,244.7,161.15Z"/><path class="cls-10" d="M199.69,184.66a13.95,13.95,0,1,1,13.95-13.95A14,14,0,0,1,199.69,184.66Z"/><path d="M199.69,157.27a13.45,13.45,0,1,1-13.45,13.44,13.46,13.46,0,0,1,13.45-13.44m0-1a14.45,14.45,0,1,0,14.45,14.44,14.44,14.44,0,0,0-14.45-14.44Z"/><circle class="cls-11" cx="218.41" cy="143.85" r="14.45"/><circle class="cls-12" cx="185.04" cy="143.45" r="14.45"/><path class="cls-13" d="M184.83,149.66a6,6,0,1,1,6-6A6,6,0,0,1,184.83,149.66Z"/><path d="M184.83,138.14a5.51,5.51,0,1,1-5.51,5.51,5.52,5.52,0,0,1,5.51-5.51m0-1a6.51,6.51,0,1,0,6.52,6.51,6.51,6.51,0,0,0-6.52-6.51Z"/><circle cx="218.41" cy="143.85" r="5.49"/></g></svg>
