<svg id="Layer_1" data-name="Layer 1" xmlns="http://www.w3.org/2000/svg" xmlns:xlink="http://www.w3.org/1999/xlink" width="630" height="510" viewBox="0 0 630 510"><defs><style>.cls-1{fill:#39b54a;}.cls-2{filter:url(#AI_Woodgrain);font-size:82.5px;font-family:RichelaKids, Richela Kids;}.cls-3{letter-spacing:-0.04em;}.cls-4{letter-spacing:-0.01em;}.cls-5{letter-spacing:-0.01em;}.cls-6{letter-spacing:0em;}.cls-7{letter-spacing:0.01em;}</style><filter id="AI_Woodgrain" x="-10" y="-10" width="150" height="150" name="AI_Woodgrain"><feGaussianBlur result="blur" stdDeviation="4" in="SourceGraphic"/><feOffset result="offsetBlurredAlpha" dx="4" dy="4"/><feFlood result="color"/><feComposite result="offsetBlurredAlpha" operator="in" in2="offsetBlurredAlpha"/><feDiffuseLighting result="diffuse" surfaceScale="5" in="blur"><feDistantLight result="light2" azimuth="135" elevation="60"/></feDiffuseLighting><feSpecularLighting result="specularOut" surfaceScale="5" specularExponent="10" in="blur"><feDistantLight result="light" azimuth="135" elevation="60"/></feSpecularLighting><feComposite result="specularOut" operator="in" in="specularOut" in2="SourceAlpha"/><feComposite result="litPaint" operator="arithmetic" k1="1" in="SourceGraphic" in2="diffuse"/><feComposite result="litPaint" operator="arithmetic" k2="1" k3="1" in="litPaint" in2="specularOut"/><feMerge><feMergeNode in="offsetBlurredAlpha"/><feMergeNode in="litPaint"/></feMerge><feTurbulence result="Turbulence" baseFrequency="0.05" numOctaves="10" type="fractalNoise" in="SourceAlpha"/><feColorMatrix result="Grayscale" values="1 0 0 0 0 1 0 0 0 0 1 0 0 0 0 0 0 0 0 1" in="Turbulence"/><feGaussianBlur result="BlurredAlpha" stdDeviation="4" in="SourceAlpha"/><feOffset result="OffsetBlurredAlpha" dx="-4" dy="-5" in="BlurredAlpha"/><feComposite result="CompBlurTurb" operator="in" in="Grayscale" in2="OffsetBlurredAlpha"/><feGaussianBlur result="CompBlurTurb2" stdDeviation="1.5" in="CompBlurTurb"/><feComponentTransfer result="CompXferFire" in="Grayscale"><feFuncR type="table" tableValues="2 0"/><feFuncG type="table" tableValues="0.7 0"/><feFuncB type="table" tableValues="0.1 0"/></feComponentTransfer><feComposite result="CompSourceFire" operator="in" in="CompXferFire" in2="SourceGraphic"/><feMerge result="MergeAll"><feMergeNode in="CompSourceFire"/></feMerge></filter></defs><title>level up knap</title><circle class="cls-1" cx="335.59" cy="261.84" r="206.5"/><path d="M335.59,55.84A205.29,205.29,0,1,1,255.41,72a204.77,204.77,0,0,1,80.18-16.18m0-1c-114.32,0-207,92.67-207,207s92.68,207,207,207,207-92.68,207-207-92.67-207-207-207Z"/><path d="M226.67,344.76c32.58-1,65.07-.81,97.52-.69,16.22.06,32.43.18,48.61.15,8.08,0,16.16,0,24.22-.18s16.1-.31,24-.82c4-.23,7.89-.53,11.61-1a42,42,0,0,0,5.15-1c.2,0,.33-.1.51-.15l.43-.14.33-.13.12-.05-.09.05a.75.75,0,0,1-.18.14,1.62,1.62,0,0,0-.32.32l-.09.1-.16.18a3.81,3.81,0,0,0-.29.41,3.61,3.61,0,0,0-.22.44,3.48,3.48,0,0,0-.29.68,4.05,4.05,0,0,0-.17.75c0,.09,0,.33,0,.29v0a.57.57,0,0,0,0,.34c0,.45.17.54.06.34a4.42,4.42,0,0,0-.37-.43,6.07,6.07,0,0,0-.62-.59,22.54,22.54,0,0,0-3.95-2.56,83.81,83.81,0,0,0-10.35-4.38c-7.33-2.62-15.05-4.71-22.82-6.81l-2.93-.77-1.47-.38-.16,0h0s0,0,0,0,0,0,0,0,.24-.1.08-.05a2.76,2.76,0,0,0-.83.74,14.34,14.34,0,0,0-2.08,3.86,35,35,0,0,0-1.47,5.08,53.42,53.42,0,0,0-.06,22.06,22.13,22.13,0,0,0,1.68,4.79,8.63,8.63,0,0,0,2.51,3.16,4,4,0,0,0,1.44.65,3.88,3.88,0,0,0,.85.1,4.61,4.61,0,0,0,.51,0l.71-.07c1-.08,1.91-.18,2.87-.33s1.92-.28,2.87-.45a69.35,69.35,0,0,0,22.08-7.8,54.53,54.53,0,0,0,17.83-15.79A52.91,52.91,0,0,1,437,355.08a59.47,59.47,0,0,1-9.15,8.49,60.93,60.93,0,0,1-10.78,6.48,77.27,77.27,0,0,1-11.82,4.52c-1,.31-2,.57-3.08.8s-2.09.47-3.14.67l-.79.15c-.27.05-.68.08-1,.12a11.36,11.36,0,0,1-6.46-1.33,15.64,15.64,0,0,1-5.69-5.65,30.76,30.76,0,0,1-2.92-6.45,52.86,52.86,0,0,1-2.34-13.08,61.38,61.38,0,0,1,.55-13.17,45.39,45.39,0,0,1,1.54-6.72,25,25,0,0,1,3.37-7,13.54,13.54,0,0,1,3.53-3.46,11,11,0,0,1,5.82-1.85,13.3,13.3,0,0,1,1.55.08l.73.12.58.11,1.49.32,3,.65c8,1.74,16,3.7,24.09,6.28a85.46,85.46,0,0,1,12.17,4.86,33.94,33.94,0,0,1,6.29,4,17.87,17.87,0,0,1,1.63,1.47,16.38,16.38,0,0,1,1.61,1.88,12.43,12.43,0,0,1,2.34,5.91,16.49,16.49,0,0,1,0,1.86v.23a3.4,3.4,0,0,1-.07.48,9,9,0,0,1-.27,1.11,8.16,8.16,0,0,1-.4,1.05c-.14.25-.28.51-.44.75s-.32.49-.5.72l-.27.34c-.09.11-.15.16-.22.24-.29.28-.58.56-.89.82a6.93,6.93,0,0,1-.79.58l-.74.47c-.44.24-.82.42-1.24.62s-.72.29-1.09.44-.68.24-1,.35-.66.21-1,.29a56.87,56.87,0,0,1-6.79,1.35c-4.32.61-8.48.95-12.64,1.22-16.57.91-32.86.73-49.18.32s-32.56-1.23-48.8-2.27C291.36,352.11,259,349.16,226.67,344.76Z"/><text class="cls-2" transform="translate(128.04 246.03)"><tspan xml:space="preserve">    </tspan><tspan class="cls-3" x="64.46" y="0">L</tspan><tspan class="cls-4" x="93.58" y="0">e</tspan><tspan class="cls-5" x="136.12" y="0">v</tspan><tspan class="cls-6" x="178.34" y="0">e</tspan><tspan x="221.69" y="0">l </tspan><tspan class="cls-7" x="265.44" y="0">U</tspan><tspan x="323.57" y="0">P </tspan></text></svg>