<svg xmlns="http://www.w3.org/2000/svg" xmlns:xlink="http://www.w3.org/1999/xlink" width="470" height="351" viewBox="0 0 470 351"><defs><style>.cls-1{fill:#7a552d;}.cls-2{fill:#efc572;}.cls-3{fill:url(#linear-gradient);}.cls-4{fill:#020202;}.cls-5{fill:red;stroke:#020202;stroke-miterlimit:10;}.cls-6{fill:#fff;}.cls-7{fill:#f9f6f4;}.cls-8{font-size:120.84px;font-family:MyriadPro-Regular, Myriad Pro;}</style><linearGradient id="linear-gradient" x1="139.98" y1="186.99" x2="140.5" y2="235.25" gradientUnits="userSpaceOnUse"><stop offset="0.43" stop-color="#a67c52"/><stop offset="1" stop-color="#efc572"/></linearGradient></defs><title>Liv </title><g id="Layer_3" data-name="Layer 3"><circle class="cls-1" cx="140.28" cy="187.37" r="67.02"/><circle class="cls-2" cx="113.13" cy="176.08" r="18.26"/><circle class="cls-2" cx="164.54" cy="176.08" r="18.26"/><ellipse class="cls-3" cx="140.28" cy="214.27" rx="39.63" ry="30.51"/><ellipse class="cls-1" cx="70.13" cy="177.28" rx="24.74" ry="33.39"/><ellipse class="cls-1" cx="214.02" cy="183.28" rx="24.98" ry="33.63"/><ellipse class="cls-4" cx="162.28" cy="205.28" rx="2.29" ry="8.1" transform="translate(-60.14 67.42) rotate(-19.88)"/><path class="cls-2" d="M58.85,176.32c0,6,3.22,10.81,7.2,10.81s12-12,7.21-10.81S70,165.51,66.05,165.51,58.85,170.35,58.85,176.32Z"/><path class="cls-2" d="M207.29,180.16C203.93,179,210.52,191,214.5,191s7.21-4.84,7.21-10.81-3.23-10.81-7.21-10.81S210.66,181.36,207.29,180.16Z"/><ellipse class="cls-4" cx="120.22" cy="205.14" rx="8.16" ry="2.32" transform="translate(-113.79 247.29) rotate(-69.84)"/><circle cx="114.81" cy="178.72" r="6.97"/><circle cx="162.61" cy="178.48" r="7.21"/><path class="cls-5" d="M115.77,222.2c1.13.56,27,30.63,50.21,0"/><circle class="cls-6" cx="115.05" cy="180.4" r="1.92"/><circle class="cls-7" cx="161.65" cy="180.4" r="1.92"/></g><g id="Layer_3_copy" data-name="Layer 3 copy"><path d="M325.21,152.06c-3.62,5.87-7.55,11.49-11.58,17s-8.19,11-12.46,16.34S292.52,196,288,201.21s-9.1,10.25-14,15.08c3.62-5.87,7.54-11.49,11.58-17s8.19-11,12.46-16.33,8.66-10.61,13.15-15.78S320.3,156.9,325.21,152.06Z"/><path d="M275.31,150.64c4.92,4.83,9.52,9.92,14,15.08s8.89,10.43,13.15,15.79,8.42,10.79,12.46,16.33,8,11.16,11.59,17c-4.92-4.84-9.53-9.92-14-15.09s-8.88-10.42-13.14-15.78-8.42-10.8-12.46-16.34S278.93,156.5,275.31,150.64Z"/><text class="cls-8" transform="translate(365.81 210.84) scale(0.82 1)">1</text></g></svg>