<svg xmlns="http://www.w3.org/2000/svg" width="410" height="400" viewBox="0 0 410 400"><defs><style>.cls-1{fill:#ccc;}.cls-2{fill:#c9c9c9;}.cls-3,.cls-4{fill:#ff1d25;}.cls-4{stroke:#ccc;stroke-miterlimit:10;stroke-width:8px;}</style></defs><title>play knap</title><g id="Layer_3" data-name="Layer 3"><circle cx="218.65" cy="224.65" r="155.35" transform="translate(-94.81 220.41) rotate(-45)"/><path class="cls-1" d="M218.65,69.81a154.83,154.83,0,1,1-109.49,45.35A153.86,153.86,0,0,1,218.65,69.81m0-1A155.85,155.85,0,1,0,374.5,224.65,155.84,155.84,0,0,0,218.65,68.81Z"/><circle class="cls-2" cx="199.17" cy="205.17" r="152.17"/><path class="cls-1" d="M199.17,53.5A151.66,151.66,0,1,1,91.92,97.92,150.68,150.68,0,0,1,199.17,53.5m0-1A152.68,152.68,0,1,0,351.85,205.17,152.67,152.67,0,0,0,199.17,52.5Z"/><path class="cls-3" d="M282.34,231.8,178.25,284.07a22.78,22.78,0,0,1-33-20.35V159.18a22.78,22.78,0,0,1,33-20.35L282.34,191.1A22.78,22.78,0,0,1,282.34,231.8Z"/><path class="cls-4" d="M246.85,202.53l-55.48-30.05"/></g></svg>