<svg xmlns="http://www.w3.org/2000/svg" width="412" height="324" viewBox="0 0 412 324"><defs><style>.cls-1{fill:#e2cf20;}.cls-2{fill:#fcee21;}.cls-3{fill:#260507;}.cls-4{font-size:156.44px;font-family:MyriadPro-Regular, Myriad Pro;}</style></defs><title>Point</title><g id="Layer_3" data-name="Layer 3"><path class="cls-1" d="M139.19,296.33a74.42,74.42,0,0,1-29.89-6.53c-17.53-7.64-33.2-22-44.15-40.35-12.83-21.16-20.09-48.91-19.93-76.13-.06-27.19,7.29-54.91,20.17-76.06C76.36,79,92,64.64,109.54,56.93a75.39,75.39,0,0,1,30.52-6.71,58.39,58.39,0,0,1,10.3.87c9.53,1.75,16,5.86,16.45,10.49.43,5.17-5.7,10.2-13.47,16.56-6,4.86-13.35,10.92-19.77,18.7a100.64,100.64,0,0,0-19.18,32.56A122.21,122.21,0,0,0,107,172.35c.09,29,9.86,56.46,26.8,75.42,6.18,7.55,13,13.34,19,18.46,8,6.82,14.4,12.2,13.95,17.86-.37,3.72-4.93,8.89-16.56,11.21A56.54,56.54,0,0,1,139.19,296.33Z"/><path class="cls-1" d="M140.06,50.46a57.91,57.91,0,0,1,10.26.88,31.72,31.72,0,0,1,11.92,4.39c2.61,1.77,4.15,3.85,4.35,5.87.43,5-5.67,10-13.38,16.33-6,4.88-13.36,10.94-19.78,18.72a101,101,0,0,0-19.24,32.66,122.73,122.73,0,0,0-7.39,43,124.36,124.36,0,0,0,7.63,43,103.22,103.22,0,0,0,19.22,32.63c6.2,7.57,13,13.37,19.09,18.49,8,6.77,14.3,12.12,13.85,17.63-.21,2.16-1.78,4.4-4.41,6.29a31.39,31.39,0,0,1-12,4.71,56.89,56.89,0,0,1-11,1,74.07,74.07,0,0,1-29.82-6.52c-17.48-7.63-33.12-21.92-44-40.26-12.81-21.12-20.06-48.82-19.89-76-.07-27.14,7.27-54.81,20.13-75.92,10.94-18.26,26.59-32.55,44.05-40.23a75.14,75.14,0,0,1,30.44-6.71h0m0-.49a75.53,75.53,0,0,0-30.6,6.73c-15.64,6.89-32,20.06-44.24,40.42C53,117.21,44.94,144.5,45,173.32c-.17,28.82,7.77,56.15,20,76.28C77.13,270,93.54,283.19,109.22,290a74.59,74.59,0,0,0,30,6.54,57.25,57.25,0,0,0,11.09-1c10.48-2.09,16.29-6.85,16.74-11.44.81-10-18.3-18.5-33.05-36.51-15.49-17.35-26.63-44.18-26.73-75.25s10.93-58.1,26.49-75.34C148.54,79.07,167.81,70.92,167,61.55c-.42-4.31-6.2-8.8-16.63-10.7A57.85,57.85,0,0,0,140.06,50Z"/><path class="cls-2" d="M144.73,296.33A49.14,49.14,0,0,1,121,289.8c-13.92-7.64-26.38-22-35.08-40.35-10.2-21.16-16-48.91-15.84-76.13,0-27.19,5.79-54.91,16-76.06,8.71-18.3,21.17-32.62,35.09-40.33a49.59,49.59,0,0,1,24.25-6.71,37.1,37.1,0,0,1,8.18.87c7.58,1.75,12.72,5.86,13.08,10.49.34,5.17-4.53,10.2-10.71,16.56-4.72,4.86-10.61,10.92-15.71,18.7-6.33,8.83-11.6,20.09-15.24,32.56a151,151,0,0,0-5.86,42.95c.08,29,7.84,56.46,21.3,75.42,4.91,7.55,10.34,13.34,15.14,18.46,6.39,6.82,11.44,12.2,11.08,17.86-.29,3.72-3.92,8.89-13.16,11.21A36.08,36.08,0,0,1,144.73,296.33Z"/><path class="cls-2" d="M145.42,50.46a36.91,36.91,0,0,1,8.16.88,22.4,22.4,0,0,1,9.47,4.39,9,9,0,0,1,3.46,5.87c.33,5-4.51,10-10.64,16.33-4.73,4.88-10.62,10.94-15.72,18.72-6.36,8.87-11.64,20.16-15.29,32.66a151.66,151.66,0,0,0-5.87,43,153.46,153.46,0,0,0,6.06,43c3.67,12.43,9,23.71,15.28,32.63,4.92,7.57,10.36,13.37,15.16,18.49,6.35,6.77,11.37,12.12,11,17.63a9.86,9.86,0,0,1-3.51,6.29,22.37,22.37,0,0,1-9.51,4.71,36.32,36.32,0,0,1-8.76,1,48.73,48.73,0,0,1-23.7-6.52c-13.89-7.63-26.32-21.92-35-40.26-10.18-21.12-15.94-48.82-15.81-76,0-27.14,5.78-54.81,16-75.92,8.7-18.26,21.13-32.55,35-40.23a49.48,49.48,0,0,1,24.19-6.71h0m0-.49A49.85,49.85,0,0,0,121.1,56.7c-12.43,6.89-25.47,20.06-35.16,40.42-9.73,20.09-16.12,47.38-16.07,76.2-.13,28.82,6.18,56.15,15.88,76.28C95.4,270,108.45,283.19,120.91,290a49.17,49.17,0,0,0,23.82,6.54,36.63,36.63,0,0,0,8.82-1c8.32-2.09,12.94-6.85,13.3-11.44.64-10-14.54-18.5-26.27-36.51-12.31-17.35-21.17-44.18-21.25-75.25S128,114.25,140.39,97c11.77-17.94,27.09-26.09,26.46-35.46-.34-4.31-4.93-8.8-13.22-10.7A36.84,36.84,0,0,0,145.42,50Z"/><path class="cls-3" d="M155.43,266.35c8,6,10.94,11.15,10.94,17.41,0,9.45-22,16.07-39.29,11.44"/></g><g id="Layer_3_copy" data-name="Layer 3 copy"><path d="M246.3,137.85c-4.88,7.44-10.06,14.64-15.36,21.76-2.62,3.57-5.35,7.06-8,10.6l-8.2,10.46L206.34,191c-2.85,3.39-5.64,6.84-8.54,10.18C192,207.93,186.18,214.59,180,221c4.87-7.45,10.06-14.65,15.35-21.76,2.62-3.58,5.36-7.07,8-10.6l8.21-10.46L220,167.85c2.85-3.39,5.64-6.83,8.55-10.18C234.26,150.92,240.13,144.26,246.3,137.85Z"/><path d="M181.7,136c6.17,6.41,12,13.07,17.79,19.82,2.91,3.35,5.7,6.79,8.55,10.18l8.37,10.33,8.21,10.46c2.67,3.53,5.41,7,8,10.6,5.29,7.11,10.48,14.31,15.35,21.76-6.18-6.41-12-13.07-17.8-19.81-2.9-3.35-5.69-6.79-8.54-10.19l-8.37-10.33-8.2-10.46c-2.68-3.53-5.41-7-8-10.6C191.76,150.64,186.58,143.45,181.7,136Z"/><text class="cls-4" transform="translate(298.86 213.94) scale(0.82 1)">1</text></g></svg>
