<svg xmlns="http://www.w3.org/2000/svg" width="140" height="150" viewBox="0 0 140 150"><defs><style>.cls-1{fill:#ccc;}.cls-2{fill:#afafaf;}.cls-3{fill:#ff1d25;stroke:#ccc;stroke-miterlimit:10;stroke-width:8px;}</style></defs><title>Settings knap</title><g id="Layer_3_copy" data-name="Layer 3 copy"><path d="M130,76.77c0-9.79-8.94-14.88-17.79-20,1.32-5.78,1.4-11-4.25-16.06a13.47,13.47,0,0,0-9.23-3.82,19.46,19.46,0,0,0-5.69,1c-3.77-7.56-6.53-14.63-16.57-14.63-11.78,0-13.58,9.73-18.73,18.58a66.87,66.87,0,0,0-12.54-1.67c-4.91,0-9.36,1.24-12.8,5.13-4.49,5.06-3.72,11.27-1.63,17.81-4.55,3.53-7.83,7.74-7.83,13.68,0,7.84,6.31,12.16,13.5,16-2.47,10.69-8.72,19.82.54,28a13,13,0,0,0,8.93,3.66c5.14,0,10.34-3,16.08-5.19,2.88,6.11,6.23,11,14.48,11,7.88,0,11.28-4.66,14.2-10.48a48.64,48.64,0,0,0,10,1.34c4.52,0,8.62-1.21,11.89-4.9,5.28-6,4.07-13.52,1.7-21.36C122.35,90.45,130,85.81,130,76.77Z"/><path class="cls-1" d="M120,70.77c0-9.79-8.94-14.88-17.79-20,1.32-5.78,1.4-11-4.25-16.06a13.47,13.47,0,0,0-9.23-3.82,19.46,19.46,0,0,0-5.69,1c-3.77-7.56-6.53-14.63-16.57-14.63-11.78,0-13.58,9.73-18.73,18.58a66.87,66.87,0,0,0-12.54-1.67c-4.91,0-9.36,1.24-12.8,5.13-4.49,5.06-3.72,11.27-1.63,17.81-4.55,3.53-7.83,7.74-7.83,13.68,0,7.84,6.31,12.16,13.5,16-2.47,10.69-8.72,19.82.54,28a13,13,0,0,0,8.93,3.66c5.14,0,10.34-3,16.08-5.19,2.88,6.11,6.23,11,14.48,11,7.88,0,11.28-4.66,14.2-10.48a48.64,48.64,0,0,0,10,1.34c4.52,0,8.62-1.21,11.89-4.9,5.28-6,4.07-13.52,1.7-21.36C112.35,84.45,120,79.81,120,70.77Z"/><path class="cls-2" d="M75.49,90.21h0A19.29,19.29,0,0,1,47.55,73h0A19.29,19.29,0,0,1,75.49,55.73h0A19.3,19.3,0,0,1,75.49,90.21Z"/><path class="cls-3" d="M83.16,69.84,63.71,59.31"/></g></svg>