<svg xmlns="http://www.w3.org/2000/svg" width="438" height="338" viewBox="0 0 438 338"><defs><style>.cls-1{fill:#39b54a;}.cls-2{font-size:19.59px;font-family:RichelaKids, Richela Kids;}.cls-3{letter-spacing:-0.01em;}.cls-4{letter-spacing:-0.01em;}.cls-5{letter-spacing:0.17em;}.cls-6{letter-spacing:0.11em;}.cls-7{letter-spacing:-0.01em;}.cls-8{letter-spacing:0em;}.cls-9{letter-spacing:-0.06em;}.cls-10,.cls-18{letter-spacing:0em;}.cls-11{letter-spacing:-0.01em;}.cls-12{letter-spacing:-0.01em;}.cls-13{letter-spacing:0em;}.cls-14{letter-spacing:0em;}.cls-15{letter-spacing:0em;}.cls-16{letter-spacing:0em;}.cls-17{letter-spacing:-0.02em;}.cls-18{font-family:MyriadPro-Regular, Myriad Pro;}.cls-19{fill:#fcee21;stroke:#070707;stroke-miterlimit:10;}</style></defs><title>Settings</title><g id="Layer_3_copy" data-name="Layer 3 copy"><rect class="cls-1" x="94.5" y="81.5" width="289" height="159" rx="43.1"/><path d="M340.4,82A42.65,42.65,0,0,1,383,124.6v72.8A42.65,42.65,0,0,1,340.4,240H137.6A42.65,42.65,0,0,1,95,197.4V124.6A42.65,42.65,0,0,1,137.6,82H340.4m0-1H137.6A43.6,43.6,0,0,0,94,124.6v72.8A43.6,43.6,0,0,0,137.6,241H340.4A43.6,43.6,0,0,0,384,197.4V124.6A43.6,43.6,0,0,0,340.4,81Z"/><text class="cls-2" transform="translate(165.63 108.55) scale(0.82 1)"><tspan class="cls-3">S<tspan class="cls-4" x="11.22" y="0">E</tspan><tspan class="cls-5" x="20.21" y="0">T</tspan><tspan class="cls-6" x="33.45" y="0">T</tspan><tspan class="cls-7" x="45.47" y="0">I</tspan><tspan class="cls-8" x="51.16" y="0">N</tspan><tspan class="cls-9" x="63.3" y="0">G</tspan><tspan class="cls-10" x="75.39" y="0">S </tspan></tspan><tspan class="cls-11"><tspan x="0" y="47.02">M</tspan><tspan class="cls-12" x="16.04" y="47.02">u</tspan><tspan class="cls-13" x="26.66" y="47.02">s</tspan><tspan class="cls-14" x="36.11" y="47.02">i</tspan><tspan class="cls-15" x="41.26" y="47.02" xml:space="preserve">c:    </tspan></tspan><tspan class="cls-16" x="0" y="94.04">S</tspan><tspan class="cls-17" x="11.28" y="94.04">F</tspan><tspan x="19.92" y="94.04">X: </tspan><tspan class="cls-18" x="39.07" y="94.04" xml:space="preserve">     </tspan></text><rect class="cls-19" x="303.56" y="183.73" width="58" height="35.77" rx="10.93"/><rect class="cls-19" x="300.56" y="128.5" width="58" height="37.05" rx="10.93"/><path d="M314.5,147.06c1,.65,2,1.35,2.92,2.05s1.9,1.42,2.81,2.16c1.84,1.48,3.64,3,5.4,4.54h-2.38q5.88-6.62,12.37-12.63c2.17-2,4.38-4,6.67-5.83a86.37,86.37,0,0,1,7.15-5.35,84.29,84.29,0,0,1-5.36,7.15c-1.86,2.29-3.82,4.5-5.82,6.67q-6,6.48-12.63,12.37l-1.33,1.18-1.05-1.18c-1.56-1.76-3.06-3.56-4.54-5.4-.74-.91-1.44-1.87-2.16-2.81S315.15,148.07,314.5,147.06Z"/><text/><text/><path d="M342.39,89.61a55.37,55.37,0,0,1-4.75,7.87Q335,101.2,332,104.61a90.07,90.07,0,0,1-6.25,6.57,55.46,55.46,0,0,1-7.13,5.82,54.56,54.56,0,0,1,4.75-7.88Q326,105.42,329,102t6.26-6.56A55.36,55.36,0,0,1,342.39,89.61Z"/><path d="M319.26,89a55.36,55.36,0,0,1,7.12,5.82c2.2,2.09,4.28,4.29,6.26,6.57s3.86,4.65,5.61,7.12a54.56,54.56,0,0,1,4.75,7.88,54.68,54.68,0,0,1-7.12-5.82q-3.3-3.13-6.26-6.56c-2-2.29-3.85-4.66-5.61-7.14A55.37,55.37,0,0,1,319.26,89Z"/></g></svg>
