<svg xmlns="http://www.w3.org/2000/svg" width="95" height="61" viewBox="0 0 95 61"><title>x</title><g id="Layer_3_copy" data-name="Layer 3 copy"><path d="M65,9.09c-2.6,4.59-5.52,8.93-8.52,13.2s-6.17,8.42-9.42,12.5-6.6,8.07-10.08,12S29.91,54.45,26,58c2.59-4.6,5.52-8.94,8.52-13.21s6.16-8.42,9.42-12.49,6.61-8.07,10.08-12S61.1,12.64,65,9.09Z"/><path d="M27,8c3.9,3.56,7.48,7.37,11,11.25s6.83,7.89,10.08,12,6.4,8.24,9.42,12.49S63.41,52.31,66,56.91c-3.91-3.55-7.48-7.37-11-11.24s-6.84-7.89-10.08-12-6.39-8.24-9.42-12.49S29.6,12.6,27,8Z"/></g></svg>
